<?xml version="1.0" encoding="utf-8"?>
<!-- Generator: Adobe Illustrator 22.0.1, SVG Export Plug-In . SVG Version: 6.00 Build 0)  -->
<svg version="1.1" id="Capa_1" xmlns="http://www.w3.org/2000/svg" xmlns:xlink="http://www.w3.org/1999/xlink" x="0px" y="0px"
	 viewBox="0 0 91.6 91.6" style="enable-background:new 0 0 91.6 91.6;" xml:space="preserve">
<style type="text/css">
	.st0{opacity:0.1;}
	.st1{fill:#0586C9;}
	.st2{fill:#00ADA9;}
	.st3{fill:#F6F6F6;}
	.st4{opacity:0.15;}
	.st5{fill:#FFFFFF;stroke:#000000;stroke-miterlimit:10;}
	.st6{fill:none;stroke:#000000;stroke-width:1.4173;stroke-miterlimit:10;}
	.st7{opacity:0.9;}
	.st8{fill:none;stroke:#3C3C3B;stroke-width:1.4173;stroke-miterlimit:10;}
	.st9{fill:none;stroke:#FFFFFF;stroke-width:0.7087;stroke-miterlimit:10;}
	.st10{fill:#FFFFFF;}
	.st11{fill:url(#SVGID_1_);}
	.st12{fill:none;stroke:#575756;stroke-width:0.7087;stroke-linecap:round;stroke-miterlimit:10;}
	.st13{fill:none;stroke:#00ADA9;stroke-width:2.8346;stroke-miterlimit:10;}
	.st14{fill:none;stroke:#00ADA9;stroke-width:1.4173;stroke-linecap:round;stroke-linejoin:round;stroke-miterlimit:10;}
	.st15{fill:#9D9D9C;}
	.st16{fill:none;stroke:#000000;stroke-miterlimit:10;}
	.st17{fill:url(#SVGID_2_);}
	.st18{fill:#706F6F;}
	.st19{fill:#FFFFFF;stroke:#000000;stroke-width:1.4173;stroke-miterlimit:10;}
	.st20{fill:url(#SVGID_3_);}
	.st21{fill:url(#SVGID_4_);}
	.st22{fill:url(#SVGID_5_);}
	.st23{fill:url(#SVGID_6_);}
	.st24{fill:#FFFFFF;stroke:#575756;stroke-width:0.7087;stroke-miterlimit:10;}
	.st25{fill:none;stroke:#575756;stroke-width:2.8346;stroke-miterlimit:10;}
	.st26{fill:url(#SVGID_7_);}
	.st27{fill:url(#SVGID_8_);}
	.st28{fill:url(#SVGID_9_);}
	.st29{fill:url(#SVGID_10_);}
	.st30{fill:url(#SVGID_11_);}
	.st31{fill:url(#SVGID_12_);}
	.st32{fill:url(#SVGID_13_);}
	.st33{fill:url(#SVGID_14_);}
	.st34{fill:url(#SVGID_15_);}
	.st35{fill:url(#SVGID_16_);}
</style>
<path class="st18" d="M87.6,91.6H4c-2.2,0-4-1.8-4-4V4c0-2.2,1.8-4,4-4h83.7c2.2,0,4,1.8,4,4v83.7C91.6,89.8,89.8,91.6,87.6,91.6z"
	/>
<g>
	<path class="st10" d="M21.3,24.2c-1.7,0-3.2-0.6-4.4-1.7c-1.2-1.2-1.8-2.5-1.8-4.1s0.6-3,1.8-4.1c1.2-1.1,2.7-1.7,4.4-1.7
		c1.7,0,3.2,0.6,4.4,1.7c1.2,1.2,1.8,2.5,1.8,4.1s-0.6,3-1.8,4.1S23,24.2,21.3,24.2z M15.9,76.5V30.7h10.8v45.8H15.9z"/>
	<path class="st10" d="M48.2,49.7v26.8H37.4V30.7h10.3v7.8h0.5c1.1-2.6,2.7-4.6,5-6.1c2.3-1.5,5.2-2.3,8.6-2.3c3.2,0,5.9,0.7,8.3,2
		c2.4,1.4,4.2,3.3,5.5,5.9s1.9,5.7,1.9,9.3v29.1H66.8V49c0-3.1-0.8-5.5-2.4-7.2c-1.6-1.7-3.8-2.6-6.5-2.6c-1.9,0-3.6,0.4-5,1.2
		c-1.5,0.8-2.6,2-3.4,3.6S48.2,47.5,48.2,49.7z"/>
</g>
</svg>
