<?xml version="1.0" encoding="utf-8"?>
<!-- Generator: Adobe Illustrator 22.0.1, SVG Export Plug-In . SVG Version: 6.00 Build 0)  -->
<svg version="1.1" id="Capa_1" xmlns="http://www.w3.org/2000/svg" xmlns:xlink="http://www.w3.org/1999/xlink" x="0px" y="0px"
	 viewBox="0 0 91.6 91.6" style="enable-background:new 0 0 91.6 91.6;" xml:space="preserve">
<style type="text/css">
	.st0{opacity:0.1;}
	.st1{fill:#0586C9;}
	.st2{fill:#00ADA9;}
	.st3{fill:#F6F6F6;}
	.st4{opacity:0.15;}
	.st5{fill:#FFFFFF;stroke:#000000;stroke-miterlimit:10;}
	.st6{fill:none;stroke:#000000;stroke-width:1.4173;stroke-miterlimit:10;}
	.st7{opacity:0.9;}
	.st8{fill:none;stroke:#3C3C3B;stroke-width:1.4173;stroke-miterlimit:10;}
	.st9{fill:none;stroke:#FFFFFF;stroke-width:0.7087;stroke-miterlimit:10;}
	.st10{fill:#FFFFFF;}
	.st11{fill:url(#SVGID_1_);}
	.st12{fill:none;stroke:#575756;stroke-width:0.7087;stroke-linecap:round;stroke-miterlimit:10;}
	.st13{fill:none;stroke:#00ADA9;stroke-width:2.8346;stroke-miterlimit:10;}
	.st14{fill:none;stroke:#00ADA9;stroke-width:1.4173;stroke-linecap:round;stroke-linejoin:round;stroke-miterlimit:10;}
	.st15{fill:#9D9D9C;}
	.st16{fill:none;stroke:#000000;stroke-miterlimit:10;}
	.st17{fill:url(#SVGID_2_);}
	.st18{fill:#706F6F;}
	.st19{fill:#FFFFFF;stroke:#000000;stroke-width:1.4173;stroke-miterlimit:10;}
	.st20{fill:url(#SVGID_3_);}
	.st21{fill:url(#SVGID_4_);}
	.st22{fill:url(#SVGID_5_);}
	.st23{fill:url(#SVGID_6_);}
	.st24{fill:#FFFFFF;stroke:#575756;stroke-width:0.7087;stroke-miterlimit:10;}
	.st25{fill:none;stroke:#575756;stroke-width:2.8346;stroke-miterlimit:10;}
	.st26{fill:url(#SVGID_7_);}
	.st27{fill:url(#SVGID_8_);}
	.st28{fill:url(#SVGID_9_);}
	.st29{fill:url(#SVGID_10_);}
	.st30{fill:url(#SVGID_11_);}
	.st31{fill:url(#SVGID_12_);}
	.st32{fill:url(#SVGID_13_);}
	.st33{fill:url(#SVGID_14_);}
	.st34{fill:url(#SVGID_15_);}
	.st35{fill:url(#SVGID_16_);}
</style>
<path class="st18" d="M87.6,91.6H4c-2.2,0-4-1.8-4-4V4c0-2.2,1.8-4,4-4h83.7c2.2,0,4,1.8,4,4v83.7C91.6,89.8,89.8,91.6,87.6,91.6z"
	/>
<g>
	<g>
		<path class="st10" d="M12.9,68.8V23h16.8c3.2,0,5.9,0.5,8.1,1.6c2.1,1.1,3.7,2.5,4.8,4.3c1.1,1.8,1.6,3.8,1.6,6.1
			c0,1.9-0.3,3.5-1,4.8c-0.7,1.3-1.6,2.3-2.8,3.1s-2.5,1.4-3.9,1.7v0.4c1.5,0.1,3,0.6,4.5,1.5c1.5,0.9,2.7,2.2,3.6,3.8
			c1,1.7,1.4,3.7,1.4,6c0,2.3-0.5,4.4-1.6,6.3c-1.1,1.9-2.8,3.3-5.1,4.4c-2.3,1.1-5.2,1.6-8.7,1.6H12.9z M19.8,42.8h9.3
			c1.5,0,2.9-0.3,4.2-0.9c1.2-0.6,2.2-1.4,3-2.5c0.7-1.1,1.1-2.4,1.1-3.8c0-1.9-0.7-3.5-2-4.8c-1.3-1.3-3.4-1.9-6.1-1.9h-9.4V42.8z
			 M19.8,62.9h10c3.3,0,5.7-0.6,7.1-1.9c1.4-1.3,2.1-2.9,2.1-4.8c0-1.4-0.4-2.8-1.1-4s-1.8-2.2-3.1-2.9c-1.3-0.7-2.9-1.1-4.8-1.1
			H19.8V62.9z"/>
		<path class="st10" d="M65.4,69.5c-3.4,0-6.3-0.7-8.7-2.2c-2.4-1.5-4.3-3.5-5.6-6.1c-1.3-2.6-2-5.7-2-9.3c0-3.5,0.7-6.6,2-9.3
			c1.3-2.7,3.2-4.8,5.5-6.3c2.4-1.5,5.2-2.3,8.3-2.3c1.9,0,3.8,0.3,5.6,1c1.8,0.6,3.4,1.6,4.9,3c1.4,1.4,2.6,3.1,3.4,5.3
			c0.8,2.2,1.3,4.8,1.3,7.9v2.4H52.8v-5h20.7c0-1.8-0.4-3.3-1.1-4.7c-0.7-1.4-1.7-2.4-3-3.2c-1.3-0.8-2.8-1.2-4.5-1.2
			c-1.9,0-3.5,0.5-4.9,1.4s-2.5,2.1-3.2,3.6c-0.8,1.5-1.1,3.1-1.1,4.8v3.9c0,2.3,0.4,4.2,1.2,5.9c0.8,1.6,1.9,2.8,3.4,3.7
			c1.5,0.8,3.2,1.3,5.1,1.3c1.3,0,2.4-0.2,3.5-0.5s1.9-0.9,2.7-1.6c0.8-0.7,1.3-1.6,1.7-2.7l6.3,1.1c-0.5,1.9-1.4,3.5-2.7,4.9
			c-1.3,1.4-2.9,2.5-4.9,3.2C70.1,69.1,67.9,69.5,65.4,69.5z"/>
	</g>
</g>
<rect x="57.1" y="27.9" class="st10" width="15.7" height="1.4"/>
</svg>
